<svg width="400" height="400" viewBox="0 0 400 400" xmlns="http://www.w3.org/2000/svg">
  <rect width="400" height="400" rx="48" fill="#EAF3F5"></rect>
  <circle cx="200" cy="150" r="74" fill="#7BA7B3"></circle>
  <path d="M92 336c16-72 64-112 108-112s92 40 108 112" fill="#3D6F7C"></path>
  <circle cx="174" cy="142" r="8" fill="#263A42"></circle>
  <circle cx="226" cy="142" r="8" fill="#263A42"></circle>
  <path d="M174 179c16 16 36 16 52 0" stroke="#263A42" stroke-width="8" fill="none" stroke-linecap="round"></path>
  <path d="M129 111c23-58 111-72 146-16 13 21 17 42 14 66-17-39-47-61-89-61-32 0-55 12-71 11z" fill="#263A42"></path>
  <text x="200" y="376" text-anchor="middle" font-family="Arial, sans-serif" font-size="26" font-weight="700" fill="#274852">Backend</text>
</svg>